<?xml version="1.0" encoding="utf-8" standalone="no"?>
<!DOCTYPE svg PUBLIC "-//W3C//DTD SVG 1.1//EN"
  "http://www.w3.org/Graphics/SVG/1.1/DTD/svg11.dtd">
<svg xmlns:xlink="http://www.w3.org/1999/xlink" width="513.106094pt" height="285.283594pt" viewBox="0 0 513.106094 285.283594" xmlns="http://www.w3.org/2000/svg" version="1.1">
 <metadata>
  <rdf:RDF xmlns:dc="http://purl.org/dc/elements/1.1/" xmlns:cc="http://creativecommons.org/ns#" xmlns:rdf="http://www.w3.org/1999/02/22-rdf-syntax-ns#">
   <cc:Work>
    <dc:type rdf:resource="http://purl.org/dc/dcmitype/StillImage"/>
    <dc:date>2023-10-26T11:24:22.964574</dc:date>
    <dc:format>image/svg+xml</dc:format>
    <dc:creator>
     <cc:Agent>
      <dc:title>Matplotlib v3.7.1, https://matplotlib.org/</dc:title>
     </cc:Agent>
    </dc:creator>
   </cc:Work>
  </rdf:RDF>
 </metadata>
 <defs>
  <style type="text/css">*{stroke-linejoin: round; stroke-linecap: butt}</style>
 </defs>
 <g id="figure_1">
  <g id="patch_1">
   <path d="M 0 285.283594 
L 513.106094 285.283594 
L 513.106094 0 
L 0 0 
z
" style="fill: #ffffff"/>
  </g>
  <g id="axes_1">
   <g id="patch_2">
    <path d="M 59.506094 243.549375 
L 505.906094 243.549375 
L 505.906094 21.789375 
L 59.506094 21.789375 
z
" style="fill: #ffffff"/>
   </g>
   <g id="matplotlib.axis_1">
    <g id="xtick_1">
     <g id="line2d_1">
      <defs>
       <path id="mb865929ff9" d="M 0 0 
L 0 6 
" style="stroke: #262626; stroke-width: 1.25"/>
      </defs>
      <g>
       <use xlink:href="#mb865929ff9" x="113.898442" y="243.549375" style="fill: #262626; stroke: #262626; stroke-width: 1.25"/>
      </g>
     </g>
     <g id="text_1">
      <!-- −1.0 -->
      <g style="fill: #262626" transform="translate(103.041098 260.922969) scale(0.11 -0.11)">
       <defs>
        <path id="ArialMT-2212" d="M 3381 1997 
L 356 1997 
L 356 2522 
L 3381 2522 
L 3381 1997 
z
" transform="scale(0.015625)"/>
        <path id="ArialMT-31" d="M 2384 0 
L 1822 0 
L 1822 3584 
Q 1619 3391 1289 3197 
Q 959 3003 697 2906 
L 697 3450 
Q 1169 3672 1522 3987 
Q 1875 4303 2022 4600 
L 2384 4600 
L 2384 0 
z
" transform="scale(0.015625)"/>
        <path id="ArialMT-2e" d="M 581 0 
L 581 641 
L 1222 641 
L 1222 0 
L 581 0 
z
" transform="scale(0.015625)"/>
        <path id="ArialMT-30" d="M 266 2259 
Q 266 3072 433 3567 
Q 600 4063 929 4331 
Q 1259 4600 1759 4600 
Q 2128 4600 2406 4451 
Q 2684 4303 2865 4023 
Q 3047 3744 3150 3342 
Q 3253 2941 3253 2259 
Q 3253 1453 3087 958 
Q 2922 463 2592 192 
Q 2263 -78 1759 -78 
Q 1097 -78 719 397 
Q 266 969 266 2259 
z
M 844 2259 
Q 844 1131 1108 757 
Q 1372 384 1759 384 
Q 2147 384 2411 759 
Q 2675 1134 2675 2259 
Q 2675 3391 2411 3762 
Q 2147 4134 1753 4134 
Q 1366 4134 1134 3806 
Q 844 3388 844 2259 
z
" transform="scale(0.015625)"/>
       </defs>
       <use xlink:href="#ArialMT-2212"/>
       <use xlink:href="#ArialMT-31" x="58.398438"/>
       <use xlink:href="#ArialMT-2e" x="114.013672"/>
       <use xlink:href="#ArialMT-30" x="141.796875"/>
      </g>
     </g>
    </g>
    <g id="xtick_2">
     <g id="line2d_2">
      <g>
       <use xlink:href="#mb865929ff9" x="188.63993" y="243.549375" style="fill: #262626; stroke: #262626; stroke-width: 1.25"/>
      </g>
     </g>
     <g id="text_2">
      <!-- −0.5 -->
      <g style="fill: #262626" transform="translate(177.782587 260.922969) scale(0.11 -0.11)">
       <defs>
        <path id="ArialMT-35" d="M 266 1200 
L 856 1250 
Q 922 819 1161 601 
Q 1400 384 1738 384 
Q 2144 384 2425 690 
Q 2706 997 2706 1503 
Q 2706 1984 2436 2262 
Q 2166 2541 1728 2541 
Q 1456 2541 1237 2417 
Q 1019 2294 894 2097 
L 366 2166 
L 809 4519 
L 3088 4519 
L 3088 3981 
L 1259 3981 
L 1013 2750 
Q 1425 3038 1878 3038 
Q 2478 3038 2890 2622 
Q 3303 2206 3303 1553 
Q 3303 931 2941 478 
Q 2500 -78 1738 -78 
Q 1113 -78 717 272 
Q 322 622 266 1200 
z
" transform="scale(0.015625)"/>
       </defs>
       <use xlink:href="#ArialMT-2212"/>
       <use xlink:href="#ArialMT-30" x="58.398438"/>
       <use xlink:href="#ArialMT-2e" x="114.013672"/>
       <use xlink:href="#ArialMT-35" x="141.796875"/>
      </g>
     </g>
    </g>
    <g id="xtick_3">
     <g id="line2d_3">
      <g>
       <use xlink:href="#mb865929ff9" x="263.381418" y="243.549375" style="fill: #262626; stroke: #262626; stroke-width: 1.25"/>
      </g>
     </g>
     <g id="text_3">
      <!-- 0.0 -->
      <g style="fill: #262626" transform="translate(255.736418 260.922969) scale(0.11 -0.11)">
       <use xlink:href="#ArialMT-30"/>
       <use xlink:href="#ArialMT-2e" x="55.615234"/>
       <use xlink:href="#ArialMT-30" x="83.398438"/>
      </g>
     </g>
    </g>
    <g id="xtick_4">
     <g id="line2d_4">
      <g>
       <use xlink:href="#mb865929ff9" x="338.122907" y="243.549375" style="fill: #262626; stroke: #262626; stroke-width: 1.25"/>
      </g>
     </g>
     <g id="text_4">
      <!-- 0.5 -->
      <g style="fill: #262626" transform="translate(330.477907 260.922969) scale(0.11 -0.11)">
       <use xlink:href="#ArialMT-30"/>
       <use xlink:href="#ArialMT-2e" x="55.615234"/>
       <use xlink:href="#ArialMT-35" x="83.398438"/>
      </g>
     </g>
    </g>
    <g id="xtick_5">
     <g id="line2d_5">
      <g>
       <use xlink:href="#mb865929ff9" x="412.864395" y="243.549375" style="fill: #262626; stroke: #262626; stroke-width: 1.25"/>
      </g>
     </g>
     <g id="text_5">
      <!-- 1.0 -->
      <g style="fill: #262626" transform="translate(405.219395 260.922969) scale(0.11 -0.11)">
       <use xlink:href="#ArialMT-31"/>
       <use xlink:href="#ArialMT-2e" x="55.615234"/>
       <use xlink:href="#ArialMT-30" x="83.398438"/>
      </g>
     </g>
    </g>
    <g id="xtick_6">
     <g id="line2d_6">
      <g>
       <use xlink:href="#mb865929ff9" x="487.605883" y="243.549375" style="fill: #262626; stroke: #262626; stroke-width: 1.25"/>
      </g>
     </g>
     <g id="text_6">
      <!-- 1.5 -->
      <g style="fill: #262626" transform="translate(479.960883 260.922969) scale(0.11 -0.11)">
       <use xlink:href="#ArialMT-31"/>
       <use xlink:href="#ArialMT-2e" x="55.615234"/>
       <use xlink:href="#ArialMT-35" x="83.398438"/>
      </g>
     </g>
    </g>
    <g id="text_7">
     <!-- Delta Stim -->
     <g style="fill: #262626" transform="translate(255.032969 275.698594) scale(0.12 -0.12)">
      <defs>
       <path id="ArialMT-44" d="M 494 0 
L 494 4581 
L 2072 4581 
Q 2606 4581 2888 4516 
Q 3281 4425 3559 4188 
Q 3922 3881 4101 3404 
Q 4281 2928 4281 2316 
Q 4281 1794 4159 1391 
Q 4038 988 3847 723 
Q 3656 459 3429 307 
Q 3203 156 2883 78 
Q 2563 0 2147 0 
L 494 0 
z
M 1100 541 
L 2078 541 
Q 2531 541 2789 625 
Q 3047 709 3200 863 
Q 3416 1078 3536 1442 
Q 3656 1806 3656 2325 
Q 3656 3044 3420 3430 
Q 3184 3816 2847 3947 
Q 2603 4041 2063 4041 
L 1100 4041 
L 1100 541 
z
" transform="scale(0.015625)"/>
       <path id="ArialMT-65" d="M 2694 1069 
L 3275 997 
Q 3138 488 2766 206 
Q 2394 -75 1816 -75 
Q 1088 -75 661 373 
Q 234 822 234 1631 
Q 234 2469 665 2931 
Q 1097 3394 1784 3394 
Q 2450 3394 2872 2941 
Q 3294 2488 3294 1666 
Q 3294 1616 3291 1516 
L 816 1516 
Q 847 969 1125 678 
Q 1403 388 1819 388 
Q 2128 388 2347 550 
Q 2566 713 2694 1069 
z
M 847 1978 
L 2700 1978 
Q 2663 2397 2488 2606 
Q 2219 2931 1791 2931 
Q 1403 2931 1139 2672 
Q 875 2413 847 1978 
z
" transform="scale(0.015625)"/>
       <path id="ArialMT-6c" d="M 409 0 
L 409 4581 
L 972 4581 
L 972 0 
L 409 0 
z
" transform="scale(0.015625)"/>
       <path id="ArialMT-74" d="M 1650 503 
L 1731 6 
Q 1494 -44 1306 -44 
Q 1000 -44 831 53 
Q 663 150 594 308 
Q 525 466 525 972 
L 525 2881 
L 113 2881 
L 113 3319 
L 525 3319 
L 525 4141 
L 1084 4478 
L 1084 3319 
L 1650 3319 
L 1650 2881 
L 1084 2881 
L 1084 941 
Q 1084 700 1114 631 
Q 1144 563 1211 522 
Q 1278 481 1403 481 
Q 1497 481 1650 503 
z
" transform="scale(0.015625)"/>
       <path id="ArialMT-61" d="M 2588 409 
Q 2275 144 1986 34 
Q 1697 -75 1366 -75 
Q 819 -75 525 192 
Q 231 459 231 875 
Q 231 1119 342 1320 
Q 453 1522 633 1644 
Q 813 1766 1038 1828 
Q 1203 1872 1538 1913 
Q 2219 1994 2541 2106 
Q 2544 2222 2544 2253 
Q 2544 2597 2384 2738 
Q 2169 2928 1744 2928 
Q 1347 2928 1158 2789 
Q 969 2650 878 2297 
L 328 2372 
Q 403 2725 575 2942 
Q 747 3159 1072 3276 
Q 1397 3394 1825 3394 
Q 2250 3394 2515 3294 
Q 2781 3194 2906 3042 
Q 3031 2891 3081 2659 
Q 3109 2516 3109 2141 
L 3109 1391 
Q 3109 606 3145 398 
Q 3181 191 3288 0 
L 2700 0 
Q 2613 175 2588 409 
z
M 2541 1666 
Q 2234 1541 1622 1453 
Q 1275 1403 1131 1340 
Q 988 1278 909 1158 
Q 831 1038 831 891 
Q 831 666 1001 516 
Q 1172 366 1500 366 
Q 1825 366 2078 508 
Q 2331 650 2450 897 
Q 2541 1088 2541 1459 
L 2541 1666 
z
" transform="scale(0.015625)"/>
       <path id="ArialMT-20" transform="scale(0.015625)"/>
       <path id="ArialMT-53" d="M 288 1472 
L 859 1522 
Q 900 1178 1048 958 
Q 1197 738 1509 602 
Q 1822 466 2213 466 
Q 2559 466 2825 569 
Q 3091 672 3220 851 
Q 3350 1031 3350 1244 
Q 3350 1459 3225 1620 
Q 3100 1781 2813 1891 
Q 2628 1963 1997 2114 
Q 1366 2266 1113 2400 
Q 784 2572 623 2826 
Q 463 3081 463 3397 
Q 463 3744 659 4045 
Q 856 4347 1234 4503 
Q 1613 4659 2075 4659 
Q 2584 4659 2973 4495 
Q 3363 4331 3572 4012 
Q 3781 3694 3797 3291 
L 3216 3247 
Q 3169 3681 2898 3903 
Q 2628 4125 2100 4125 
Q 1550 4125 1298 3923 
Q 1047 3722 1047 3438 
Q 1047 3191 1225 3031 
Q 1400 2872 2139 2705 
Q 2878 2538 3153 2413 
Q 3553 2228 3743 1945 
Q 3934 1663 3934 1294 
Q 3934 928 3725 604 
Q 3516 281 3123 101 
Q 2731 -78 2241 -78 
Q 1619 -78 1198 103 
Q 778 284 539 648 
Q 300 1013 288 1472 
z
" transform="scale(0.015625)"/>
       <path id="ArialMT-69" d="M 425 3934 
L 425 4581 
L 988 4581 
L 988 3934 
L 425 3934 
z
M 425 0 
L 425 3319 
L 988 3319 
L 988 0 
L 425 0 
z
" transform="scale(0.015625)"/>
       <path id="ArialMT-6d" d="M 422 0 
L 422 3319 
L 925 3319 
L 925 2853 
Q 1081 3097 1340 3245 
Q 1600 3394 1931 3394 
Q 2300 3394 2536 3241 
Q 2772 3088 2869 2813 
Q 3263 3394 3894 3394 
Q 4388 3394 4653 3120 
Q 4919 2847 4919 2278 
L 4919 0 
L 4359 0 
L 4359 2091 
Q 4359 2428 4304 2576 
Q 4250 2725 4106 2815 
Q 3963 2906 3769 2906 
Q 3419 2906 3187 2673 
Q 2956 2441 2956 1928 
L 2956 0 
L 2394 0 
L 2394 2156 
Q 2394 2531 2256 2718 
Q 2119 2906 1806 2906 
Q 1569 2906 1367 2781 
Q 1166 2656 1075 2415 
Q 984 2175 984 1722 
L 984 0 
L 422 0 
z
" transform="scale(0.015625)"/>
      </defs>
      <use xlink:href="#ArialMT-44"/>
      <use xlink:href="#ArialMT-65" x="72.216797"/>
      <use xlink:href="#ArialMT-6c" x="127.832031"/>
      <use xlink:href="#ArialMT-74" x="150.048828"/>
      <use xlink:href="#ArialMT-61" x="177.832031"/>
      <use xlink:href="#ArialMT-20" x="233.447266"/>
      <use xlink:href="#ArialMT-53" x="261.230469"/>
      <use xlink:href="#ArialMT-74" x="327.929688"/>
      <use xlink:href="#ArialMT-69" x="355.712891"/>
      <use xlink:href="#ArialMT-6d" x="377.929688"/>
     </g>
    </g>
   </g>
   <g id="matplotlib.axis_2">
    <g id="ytick_1">
     <g id="line2d_7">
      <defs>
       <path id="m9a2903d9f9" d="M 0 0 
L -6 0 
" style="stroke: #262626; stroke-width: 1.25"/>
      </defs>
      <g>
       <use xlink:href="#m9a2903d9f9" x="59.506094" y="234.811906" style="fill: #262626; stroke: #262626; stroke-width: 1.25"/>
      </g>
     </g>
     <g id="text_8">
      <!-- −0.04 -->
      <g style="fill: #262626" transform="translate(22.174375 238.748703) scale(0.11 -0.11)">
       <defs>
        <path id="ArialMT-34" d="M 2069 0 
L 2069 1097 
L 81 1097 
L 81 1613 
L 2172 4581 
L 2631 4581 
L 2631 1613 
L 3250 1613 
L 3250 1097 
L 2631 1097 
L 2631 0 
L 2069 0 
z
M 2069 1613 
L 2069 3678 
L 634 1613 
L 2069 1613 
z
" transform="scale(0.015625)"/>
       </defs>
       <use xlink:href="#ArialMT-2212"/>
       <use xlink:href="#ArialMT-30" x="58.398438"/>
       <use xlink:href="#ArialMT-2e" x="114.013672"/>
       <use xlink:href="#ArialMT-30" x="141.796875"/>
       <use xlink:href="#ArialMT-34" x="197.412109"/>
      </g>
     </g>
    </g>
    <g id="ytick_2">
     <g id="line2d_8">
      <g>
       <use xlink:href="#m9a2903d9f9" x="59.506094" y="200.584153" style="fill: #262626; stroke: #262626; stroke-width: 1.25"/>
      </g>
     </g>
     <g id="text_9">
      <!-- −0.02 -->
      <g style="fill: #262626" transform="translate(22.174375 204.52095) scale(0.11 -0.11)">
       <defs>
        <path id="ArialMT-32" d="M 3222 541 
L 3222 0 
L 194 0 
Q 188 203 259 391 
Q 375 700 629 1000 
Q 884 1300 1366 1694 
Q 2113 2306 2375 2664 
Q 2638 3022 2638 3341 
Q 2638 3675 2398 3904 
Q 2159 4134 1775 4134 
Q 1369 4134 1125 3890 
Q 881 3647 878 3216 
L 300 3275 
Q 359 3922 746 4261 
Q 1134 4600 1788 4600 
Q 2447 4600 2831 4234 
Q 3216 3869 3216 3328 
Q 3216 3053 3103 2787 
Q 2991 2522 2730 2228 
Q 2469 1934 1863 1422 
Q 1356 997 1212 845 
Q 1069 694 975 541 
L 3222 541 
z
" transform="scale(0.015625)"/>
       </defs>
       <use xlink:href="#ArialMT-2212"/>
       <use xlink:href="#ArialMT-30" x="58.398438"/>
       <use xlink:href="#ArialMT-2e" x="114.013672"/>
       <use xlink:href="#ArialMT-30" x="141.796875"/>
       <use xlink:href="#ArialMT-32" x="197.412109"/>
      </g>
     </g>
    </g>
    <g id="ytick_3">
     <g id="line2d_9">
      <g>
       <use xlink:href="#m9a2903d9f9" x="59.506094" y="166.3564" style="fill: #262626; stroke: #262626; stroke-width: 1.25"/>
      </g>
     </g>
     <g id="text_10">
      <!-- 0.00 -->
      <g style="fill: #262626" transform="translate(28.599063 170.293197) scale(0.11 -0.11)">
       <use xlink:href="#ArialMT-30"/>
       <use xlink:href="#ArialMT-2e" x="55.615234"/>
       <use xlink:href="#ArialMT-30" x="83.398438"/>
       <use xlink:href="#ArialMT-30" x="139.013672"/>
      </g>
     </g>
    </g>
    <g id="ytick_4">
     <g id="line2d_10">
      <g>
       <use xlink:href="#m9a2903d9f9" x="59.506094" y="132.128647" style="fill: #262626; stroke: #262626; stroke-width: 1.25"/>
      </g>
     </g>
     <g id="text_11">
      <!-- 0.02 -->
      <g style="fill: #262626" transform="translate(28.599063 136.065444) scale(0.11 -0.11)">
       <use xlink:href="#ArialMT-30"/>
       <use xlink:href="#ArialMT-2e" x="55.615234"/>
       <use xlink:href="#ArialMT-30" x="83.398438"/>
       <use xlink:href="#ArialMT-32" x="139.013672"/>
      </g>
     </g>
    </g>
    <g id="ytick_5">
     <g id="line2d_11">
      <g>
       <use xlink:href="#m9a2903d9f9" x="59.506094" y="97.900894" style="fill: #262626; stroke: #262626; stroke-width: 1.25"/>
      </g>
     </g>
     <g id="text_12">
      <!-- 0.04 -->
      <g style="fill: #262626" transform="translate(28.599063 101.837691) scale(0.11 -0.11)">
       <use xlink:href="#ArialMT-30"/>
       <use xlink:href="#ArialMT-2e" x="55.615234"/>
       <use xlink:href="#ArialMT-30" x="83.398438"/>
       <use xlink:href="#ArialMT-34" x="139.013672"/>
      </g>
     </g>
    </g>
    <g id="ytick_6">
     <g id="line2d_12">
      <g>
       <use xlink:href="#m9a2903d9f9" x="59.506094" y="63.673141" style="fill: #262626; stroke: #262626; stroke-width: 1.25"/>
      </g>
     </g>
     <g id="text_13">
      <!-- 0.06 -->
      <g style="fill: #262626" transform="translate(28.599063 67.609937) scale(0.11 -0.11)">
       <defs>
        <path id="ArialMT-36" d="M 3184 3459 
L 2625 3416 
Q 2550 3747 2413 3897 
Q 2184 4138 1850 4138 
Q 1581 4138 1378 3988 
Q 1113 3794 959 3422 
Q 806 3050 800 2363 
Q 1003 2672 1297 2822 
Q 1591 2972 1913 2972 
Q 2475 2972 2870 2558 
Q 3266 2144 3266 1488 
Q 3266 1056 3080 686 
Q 2894 316 2569 119 
Q 2244 -78 1831 -78 
Q 1128 -78 684 439 
Q 241 956 241 2144 
Q 241 3472 731 4075 
Q 1159 4600 1884 4600 
Q 2425 4600 2770 4297 
Q 3116 3994 3184 3459 
z
M 888 1484 
Q 888 1194 1011 928 
Q 1134 663 1356 523 
Q 1578 384 1822 384 
Q 2178 384 2434 671 
Q 2691 959 2691 1453 
Q 2691 1928 2437 2201 
Q 2184 2475 1800 2475 
Q 1419 2475 1153 2201 
Q 888 1928 888 1484 
z
" transform="scale(0.015625)"/>
       </defs>
       <use xlink:href="#ArialMT-30"/>
       <use xlink:href="#ArialMT-2e" x="55.615234"/>
       <use xlink:href="#ArialMT-30" x="83.398438"/>
       <use xlink:href="#ArialMT-36" x="139.013672"/>
      </g>
     </g>
    </g>
    <g id="ytick_7">
     <g id="line2d_13">
      <g>
       <use xlink:href="#m9a2903d9f9" x="59.506094" y="29.445387" style="fill: #262626; stroke: #262626; stroke-width: 1.25"/>
      </g>
     </g>
     <g id="text_14">
      <!-- 0.08 -->
      <g style="fill: #262626" transform="translate(28.599063 33.382184) scale(0.11 -0.11)">
       <defs>
        <path id="ArialMT-38" d="M 1131 2484 
Q 781 2613 612 2850 
Q 444 3088 444 3419 
Q 444 3919 803 4259 
Q 1163 4600 1759 4600 
Q 2359 4600 2725 4251 
Q 3091 3903 3091 3403 
Q 3091 3084 2923 2848 
Q 2756 2613 2416 2484 
Q 2838 2347 3058 2040 
Q 3278 1734 3278 1309 
Q 3278 722 2862 322 
Q 2447 -78 1769 -78 
Q 1091 -78 675 323 
Q 259 725 259 1325 
Q 259 1772 486 2073 
Q 713 2375 1131 2484 
z
M 1019 3438 
Q 1019 3113 1228 2906 
Q 1438 2700 1772 2700 
Q 2097 2700 2305 2904 
Q 2513 3109 2513 3406 
Q 2513 3716 2298 3927 
Q 2084 4138 1766 4138 
Q 1444 4138 1231 3931 
Q 1019 3725 1019 3438 
z
M 838 1322 
Q 838 1081 952 856 
Q 1066 631 1291 507 
Q 1516 384 1775 384 
Q 2178 384 2440 643 
Q 2703 903 2703 1303 
Q 2703 1709 2433 1975 
Q 2163 2241 1756 2241 
Q 1359 2241 1098 1978 
Q 838 1716 838 1322 
z
" transform="scale(0.015625)"/>
       </defs>
       <use xlink:href="#ArialMT-30"/>
       <use xlink:href="#ArialMT-2e" x="55.615234"/>
       <use xlink:href="#ArialMT-30" x="83.398438"/>
       <use xlink:href="#ArialMT-38" x="139.013672"/>
      </g>
     </g>
    </g>
    <g id="text_15">
     <!-- dF/F -->
     <g style="fill: #262626" transform="translate(15.789375 145.002187) rotate(-90) scale(0.12 -0.12)">
      <defs>
       <path id="ArialMT-64" d="M 2575 0 
L 2575 419 
Q 2259 -75 1647 -75 
Q 1250 -75 917 144 
Q 584 363 401 755 
Q 219 1147 219 1656 
Q 219 2153 384 2558 
Q 550 2963 881 3178 
Q 1213 3394 1622 3394 
Q 1922 3394 2156 3267 
Q 2391 3141 2538 2938 
L 2538 4581 
L 3097 4581 
L 3097 0 
L 2575 0 
z
M 797 1656 
Q 797 1019 1065 703 
Q 1334 388 1700 388 
Q 2069 388 2326 689 
Q 2584 991 2584 1609 
Q 2584 2291 2321 2609 
Q 2059 2928 1675 2928 
Q 1300 2928 1048 2622 
Q 797 2316 797 1656 
z
" transform="scale(0.015625)"/>
       <path id="ArialMT-46" d="M 525 0 
L 525 4581 
L 3616 4581 
L 3616 4041 
L 1131 4041 
L 1131 2622 
L 3281 2622 
L 3281 2081 
L 1131 2081 
L 1131 0 
L 525 0 
z
" transform="scale(0.015625)"/>
       <path id="ArialMT-2f" d="M 0 -78 
L 1328 4659 
L 1778 4659 
L 453 -78 
L 0 -78 
z
" transform="scale(0.015625)"/>
      </defs>
      <use xlink:href="#ArialMT-64"/>
      <use xlink:href="#ArialMT-46" x="55.615234"/>
      <use xlink:href="#ArialMT-2f" x="116.699219"/>
      <use xlink:href="#ArialMT-46" x="144.482422"/>
     </g>
    </g>
   </g>
   <g id="PolyCollection_1">
    <defs>
     <path id="m71bbe3658b" d="M 79.797003 -205.604542 
L 79.797003 -189.772317 
L 84.628172 -185.045414 
L 89.459341 -174.322661 
L 94.290509 -167.077562 
L 99.121678 -145.88638 
L 103.952847 -139.125093 
L 108.784016 -125.211815 
L 113.615185 -120.228106 
L 118.446353 -111.54801 
L 123.277522 -111.411215 
L 128.108691 -100.076215 
L 132.93986 -96.832707 
L 137.771029 -90.946817 
L 142.602198 -90.523136 
L 147.433366 -79.867561 
L 152.264535 -71.832123 
L 157.095704 -67.187724 
L 161.926873 -91.955696 
L 166.758042 -121.608108 
L 171.589211 -144.1345 
L 176.420379 -161.774106 
L 181.251548 -179.886522 
L 186.082717 -186.241515 
L 190.913886 -196.688594 
L 195.745055 -191.168591 
L 200.576224 -179.619538 
L 205.407392 -168.013665 
L 210.238561 -151.067223 
L 215.06973 -139.897173 
L 219.900899 -125.373841 
L 224.732068 -124.654389 
L 229.563237 -118.096871 
L 234.394405 -113.200854 
L 239.225574 -109.792416 
L 244.056743 -98.071661 
L 248.887912 -96.625155 
L 253.719081 -82.659759 
L 258.55025 -81.334909 
L 263.381418 -75.721703 
L 268.212587 -73.813638 
L 273.043756 -89.590721 
L 277.874925 -119.70288 
L 282.706094 -166.507177 
L 287.537263 -200.245343 
L 292.368431 -213.541818 
L 297.1996 -222.721908 
L 302.030769 -235.198245 
L 306.861938 -234.484334 
L 311.693107 -217.66904 
L 316.524276 -196.024701 
L 321.355444 -169.926909 
L 326.186613 -153.607849 
L 331.017782 -130.397533 
L 335.848951 -115.546007 
L 340.68012 -108.685639 
L 345.511289 -100.298161 
L 350.342457 -92.416192 
L 355.173626 -85.387327 
L 360.004795 -82.303768 
L 364.835964 -80.230714 
L 369.667133 -77.678525 
L 374.498302 -66.86952 
L 379.32947 -64.410226 
L 384.160639 -74.767617 
L 388.991808 -109.883615 
L 393.822977 -139.991157 
L 398.654146 -160.74363 
L 403.485315 -169.626135 
L 408.316483 -181.927543 
L 413.147652 -190.734402 
L 417.978821 -199.823074 
L 422.80999 -194.918657 
L 427.641159 -179.953208 
L 432.472328 -164.57295 
L 437.303496 -141.482017 
L 442.134665 -124.781634 
L 446.965834 -121.26463 
L 451.797003 -109.831971 
L 456.628172 -102.29523 
L 461.459341 -97.439567 
L 466.290509 -89.70552 
L 471.121678 -87.989016 
L 475.952847 -92.058027 
L 480.784016 -79.52512 
L 485.615185 -82.575575 
L 485.615185 -94.792567 
L 485.615185 -94.792567 
L 480.784016 -91.729367 
L 475.952847 -104.450141 
L 471.121678 -100.234778 
L 466.290509 -102.037876 
L 461.459341 -109.944414 
L 456.628172 -114.762579 
L 451.797003 -122.088514 
L 446.965834 -134.512055 
L 442.134665 -138.397436 
L 437.303496 -155.513563 
L 432.472328 -179.335581 
L 427.641159 -196.340775 
L 422.80999 -212.930209 
L 417.978821 -217.875963 
L 413.147652 -208.950344 
L 408.316483 -200.152604 
L 403.485315 -186.757099 
L 398.654146 -176.790508 
L 393.822977 -154.557243 
L 388.991808 -122.988249 
L 384.160639 -87.291426 
L 379.32947 -76.010452 
L 374.498302 -78.949847 
L 369.667133 -90.033532 
L 364.835964 -93.097592 
L 360.004795 -94.990944 
L 355.173626 -97.541563 
L 350.342457 -105.446452 
L 345.511289 -112.695963 
L 340.68012 -121.084004 
L 335.848951 -128.052698 
L 331.017782 -143.730855 
L 326.186613 -167.575612 
L 321.355444 -184.320066 
L 316.524276 -212.126462 
L 311.693107 -236.196836 
L 306.861938 -252.797981 
L 302.030769 -253.414219 
L 297.1996 -239.006509 
L 292.368431 -230.034289 
L 287.537263 -214.239245 
L 282.706094 -180.644659 
L 277.874925 -133.361723 
L 273.043756 -102.232515 
L 268.212587 -85.601627 
L 263.381418 -87.934167 
L 258.55025 -93.639311 
L 253.719081 -95.614872 
L 248.887912 -109.742254 
L 244.056743 -110.793142 
L 239.225574 -122.872698 
L 234.394405 -126.79641 
L 229.563237 -131.037707 
L 224.732068 -137.79624 
L 219.900899 -140.265309 
L 215.06973 -153.964705 
L 210.238561 -166.154654 
L 205.407392 -183.894896 
L 200.576224 -196.191445 
L 195.745055 -208.423943 
L 190.913886 -214.219562 
L 186.082717 -202.683258 
L 181.251548 -197.285432 
L 176.420379 -176.417356 
L 171.589211 -157.29718 
L 166.758042 -134.335074 
L 161.926873 -104.08305 
L 157.095704 -79.262177 
L 152.264535 -84.128778 
L 147.433366 -92.373071 
L 142.602198 -102.860666 
L 137.771029 -103.372105 
L 132.93986 -109.1631 
L 128.108691 -113.536038 
L 123.277522 -124.149375 
L 118.446353 -124.95757 
L 113.615185 -133.844243 
L 108.784016 -138.616813 
L 103.952847 -151.84902 
L 99.121678 -159.537873 
L 94.290509 -181.078124 
L 89.459341 -189.686581 
L 84.628172 -201.53808 
L 79.797003 -205.604542 
z
" style="stroke: #1f77b4; stroke-opacity: 0.2"/>
    </defs>
    <g clip-path="url(#p8b05cee9a1)">
     <use xlink:href="#m71bbe3658b" x="0" y="285.283594" style="fill: #1f77b4; fill-opacity: 0.2; stroke: #1f77b4; stroke-opacity: 0.2"/>
    </g>
   </g>
   <g id="PolyCollection_2">
    <defs>
     <path id="m57647a545b" d="M 79.797003 -239.771406 
L 79.797003 -221.247515 
L 84.628172 -227.333244 
L 89.459341 -217.574547 
L 94.290509 -196.826111 
L 99.121678 -181.772375 
L 103.952847 -165.859765 
L 108.784016 -150.724805 
L 113.615185 -138.332713 
L 118.446353 -132.737076 
L 123.277522 -127.785259 
L 128.108691 -117.888751 
L 132.93986 -114.001606 
L 137.771029 -109.564524 
L 142.602198 -101.318799 
L 147.433366 -99.374009 
L 152.264535 -94.45679 
L 157.095704 -91.078406 
L 161.926873 -100.164026 
L 166.758042 -127.362576 
L 171.589211 -163.183053 
L 176.420379 -179.450139 
L 181.251548 -200.631334 
L 186.082717 -209.664652 
L 190.913886 -224.394621 
L 195.745055 -233.233469 
L 200.576224 -227.848877 
L 205.407392 -209.089655 
L 210.238561 -181.515522 
L 215.06973 -170.787985 
L 219.900899 -163.712731 
L 224.732068 -153.036134 
L 229.563237 -147.616544 
L 234.394405 -138.051037 
L 239.225574 -124.38731 
L 244.056743 -121.183337 
L 248.887912 -116.280016 
L 253.719081 -113.467287 
L 258.55025 -111.738206 
L 263.381418 -103.659559 
L 268.212587 -104.065156 
L 273.043756 -98.935772 
L 277.874925 -96.495674 
L 282.706094 -92.710242 
L 287.537263 -88.910136 
L 292.368431 -83.138832 
L 297.1996 -82.586389 
L 302.030769 -80.526007 
L 306.861938 -79.653967 
L 311.693107 -71.288748 
L 316.524276 -72.486121 
L 321.355444 -73.166333 
L 326.186613 -72.55202 
L 331.017782 -69.416815 
L 335.848951 -65.94151 
L 340.68012 -71.502919 
L 345.511289 -69.005107 
L 350.342457 -63.408276 
L 355.173626 -67.448207 
L 360.004795 -68.706195 
L 364.835964 -66.421012 
L 369.667133 -58.503897 
L 374.498302 -63.157145 
L 379.32947 -53.968471 
L 384.160639 -51.814219 
L 388.991808 -78.195651 
L 393.822977 -110.390961 
L 398.654146 -137.747231 
L 403.485315 -160.396999 
L 408.316483 -166.064126 
L 413.147652 -168.89229 
L 417.978821 -179.446849 
L 422.80999 -181.679435 
L 427.641159 -168.26509 
L 432.472328 -153.475715 
L 437.303496 -131.734648 
L 442.134665 -127.23407 
L 446.965834 -120.940343 
L 451.797003 -115.040345 
L 456.628172 -101.326235 
L 461.459341 -98.049273 
L 466.290509 -95.091425 
L 471.121678 -88.489426 
L 475.952847 -90.928388 
L 480.784016 -81.006281 
L 485.615185 -79.974315 
L 485.615185 -92.738676 
L 485.615185 -92.738676 
L 480.784016 -92.724664 
L 475.952847 -104.003064 
L 471.121678 -101.004559 
L 466.290509 -108.060693 
L 461.459341 -110.815495 
L 456.628172 -113.886974 
L 451.797003 -128.564147 
L 446.965834 -133.704978 
L 442.134665 -141.275045 
L 437.303496 -145.530021 
L 432.472328 -168.080017 
L 427.641159 -182.890613 
L 422.80999 -197.147448 
L 417.978821 -195.002315 
L 413.147652 -184.546062 
L 408.316483 -181.642054 
L 403.485315 -174.190257 
L 398.654146 -152.183545 
L 393.822977 -123.05876 
L 388.991808 -90.881007 
L 384.160639 -64.823251 
L 379.32947 -67.12836 
L 374.498302 -75.864802 
L 369.667133 -70.977239 
L 364.835964 -80.018744 
L 360.004795 -81.640992 
L 355.173626 -80.77423 
L 350.342457 -76.526802 
L 345.511289 -80.644854 
L 340.68012 -84.553285 
L 335.848951 -78.559864 
L 331.017782 -83.113197 
L 326.186613 -85.083541 
L 321.355444 -86.006286 
L 316.524276 -86.334697 
L 311.693107 -83.502486 
L 306.861938 -92.901138 
L 302.030769 -93.253078 
L 297.1996 -96.119977 
L 292.368431 -96.380736 
L 287.537263 -101.972578 
L 282.706094 -105.990845 
L 277.874925 -109.56744 
L 273.043756 -111.79095 
L 268.212587 -116.744705 
L 263.381418 -117.112915 
L 258.55025 -124.125231 
L 253.719081 -125.586838 
L 248.887912 -130.236557 
L 244.056743 -134.548076 
L 239.225574 -137.971855 
L 234.394405 -152.699222 
L 229.563237 -161.332819 
L 224.732068 -167.632713 
L 219.900899 -178.849479 
L 215.06973 -186.188136 
L 210.238561 -198.52208 
L 205.407392 -226.904108 
L 200.576224 -246.591942 
L 195.745055 -253.0473 
L 190.913886 -243.968697 
L 186.082717 -228.12098 
L 181.251548 -217.417122 
L 176.420379 -196.621257 
L 171.589211 -178.988033 
L 166.758042 -141.324231 
L 161.926873 -112.782102 
L 157.095704 -103.810577 
L 152.264535 -106.973227 
L 147.433366 -112.365962 
L 142.602198 -114.797858 
L 137.771029 -123.123149 
L 132.93986 -127.256723 
L 128.108691 -130.50811 
L 123.277522 -141.112479 
L 118.446353 -146.527429 
L 113.615185 -152.264577 
L 108.784016 -166.435452 
L 103.952847 -181.113352 
L 99.121678 -199.348875 
L 94.290509 -215.739851 
L 89.459341 -236.592906 
L 84.628172 -246.892215 
L 79.797003 -239.771406 
z
" style="stroke: #1f77b4; stroke-opacity: 0.2"/>
    </defs>
    <g clip-path="url(#p8b05cee9a1)">
     <use xlink:href="#m57647a545b" x="0" y="285.283594" style="fill: #1f77b4; fill-opacity: 0.2; stroke: #1f77b4; stroke-opacity: 0.2"/>
    </g>
   </g>
   <g id="PolyCollection_3">
    <defs>
     <path id="m452250d87b" d="M 79.798813 -146.303894 
L 79.798813 -134.810786 
L 84.629934 -133.642642 
L 89.461056 -126.974217 
L 94.292177 -119.131011 
L 99.123298 -121.102946 
L 103.954419 -120.267326 
L 108.78554 -112.69632 
L 113.616662 -112.117601 
L 118.447783 -120.85374 
L 123.278904 -109.39502 
L 128.110025 -117.151441 
L 132.941146 -113.627861 
L 137.772268 -113.437674 
L 142.603389 -99.88502 
L 147.43451 -109.302318 
L 152.265631 -111.593761 
L 157.096752 -104.840335 
L 161.927873 -108.242625 
L 166.758995 -121.762925 
L 171.590116 -127.456624 
L 176.421237 -130.814695 
L 181.252358 -132.383676 
L 186.083479 -134.439791 
L 190.914601 -134.812481 
L 195.745722 -142.90061 
L 200.576843 -137.424487 
L 205.407964 -131.578791 
L 210.239085 -128.709445 
L 215.070207 -124.417912 
L 219.901328 -123.080515 
L 224.732449 -119.911989 
L 229.56357 -115.22655 
L 234.394691 -115.940117 
L 239.225812 -117.487249 
L 244.056934 -112.486352 
L 248.888055 -108.88072 
L 253.719176 -111.173006 
L 258.550297 -111.776792 
L 263.381418 -107.454755 
L 268.21254 -107.384056 
L 273.043661 -104.003217 
L 277.874782 -115.706935 
L 282.705903 -129.688755 
L 287.537024 -135.388848 
L 292.368146 -138.158451 
L 297.199267 -138.557978 
L 302.030388 -142.877739 
L 306.861509 -153.276758 
L 311.69263 -142.963978 
L 316.523751 -133.234045 
L 321.354873 -126.290419 
L 326.185994 -116.731994 
L 331.017115 -111.03877 
L 335.848236 -109.988889 
L 340.679357 -105.970565 
L 345.510479 -91.384526 
L 350.3416 -94.112373 
L 355.172721 -94.881803 
L 360.003842 -89.929568 
L 364.834963 -84.436291 
L 369.666085 -81.985188 
L 374.497206 -81.105123 
L 379.328327 -85.743229 
L 384.159448 -84.63761 
L 388.990569 -89.065257 
L 393.82169 -105.983014 
L 398.652812 -116.546075 
L 403.483933 -124.615165 
L 408.315054 -127.406115 
L 413.146175 -136.088303 
L 417.977296 -145.84155 
L 422.808418 -139.281503 
L 427.639539 -136.15812 
L 432.47066 -126.549737 
L 437.301781 -115.843908 
L 442.132902 -115.892367 
L 446.964024 -111.535369 
L 451.795145 -108.238279 
L 456.626266 -106.747014 
L 461.457387 -106.25595 
L 466.288508 -110.648807 
L 471.119629 -105.250007 
L 475.950751 -105.018203 
L 480.781872 -104.226143 
L 485.612993 -104.688862 
L 485.612993 -116.379181 
L 485.612993 -116.379181 
L 480.781872 -116.292696 
L 475.950751 -116.949952 
L 471.119629 -116.042768 
L 466.288508 -122.963795 
L 461.457387 -118.291727 
L 456.626266 -117.959037 
L 451.795145 -120.307772 
L 446.964024 -124.202619 
L 442.132902 -128.101044 
L 437.301781 -128.693967 
L 432.47066 -139.414271 
L 427.639539 -149.030008 
L 422.808418 -152.188543 
L 417.977296 -158.855562 
L 413.146175 -148.946494 
L 408.315054 -139.97376 
L 403.483933 -137.644082 
L 398.652812 -128.886174 
L 393.82169 -118.204737 
L 388.990569 -101.138345 
L 384.159448 -96.475459 
L 379.328327 -97.816042 
L 374.497206 -93.545909 
L 369.666085 -94.487921 
L 364.834963 -96.483388 
L 360.003842 -101.437956 
L 355.172721 -107.051087 
L 350.3416 -106.276244 
L 345.510479 -103.205191 
L 340.679357 -117.002805 
L 335.848236 -121.853885 
L 331.017115 -122.163107 
L 326.185994 -128.448119 
L 321.354873 -138.908713 
L 316.523751 -145.667109 
L 311.69263 -155.96634 
L 306.861509 -167.294412 
L 302.030388 -155.759118 
L 297.199267 -151.256559 
L 292.368146 -150.929697 
L 287.537024 -147.357361 
L 282.705903 -141.678576 
L 277.874782 -127.804831 
L 273.043661 -115.994754 
L 268.21254 -119.084819 
L 263.381418 -119.897619 
L 258.550297 -123.435548 
L 253.719176 -122.726642 
L 248.888055 -121.609155 
L 244.056934 -124.775298 
L 239.225812 -128.786083 
L 234.394691 -128.351313 
L 229.56357 -127.702511 
L 224.732449 -132.299325 
L 219.901328 -135.206774 
L 215.070207 -136.336216 
L 210.239085 -140.740676 
L 205.407964 -143.407478 
L 200.576843 -150.165722 
L 195.745722 -155.337183 
L 190.914601 -147.483816 
L 186.083479 -146.186605 
L 181.252358 -144.708758 
L 176.421237 -143.239748 
L 171.590116 -138.556752 
L 166.758995 -134.058247 
L 161.927873 -119.971641 
L 157.096752 -116.836531 
L 152.265631 -122.990777 
L 147.43451 -120.816815 
L 142.603389 -110.798577 
L 137.772268 -125.335381 
L 132.941146 -126.282476 
L 128.110025 -128.9275 
L 123.278904 -121.146103 
L 118.447783 -132.781326 
L 113.616662 -123.663412 
L 108.78554 -125.044655 
L 103.954419 -132.309052 
L 99.123298 -132.630975 
L 94.292177 -131.261501 
L 89.461056 -139.434532 
L 84.629934 -145.989693 
L 79.798813 -146.303894 
z
" style="stroke: #ff7f0e; stroke-opacity: 0.2"/>
    </defs>
    <g clip-path="url(#p8b05cee9a1)">
     <use xlink:href="#m452250d87b" x="0" y="285.283594" style="fill: #ff7f0e; fill-opacity: 0.2; stroke: #ff7f0e; stroke-opacity: 0.2"/>
    </g>
   </g>
   <g id="PolyCollection_4">
    <defs>
     <path id="m7d9bfa9543" d="M 79.798813 -158.098627 
L 79.798813 -144.667688 
L 84.629934 -147.708349 
L 89.461056 -142.64988 
L 94.292177 -138.152048 
L 99.123298 -137.117171 
L 103.954419 -126.925437 
L 108.78554 -126.725354 
L 113.616662 -122.821719 
L 118.447783 -125.293044 
L 123.278904 -122.355669 
L 128.110025 -116.162383 
L 132.941146 -117.575582 
L 137.772268 -111.433345 
L 142.603389 -106.676851 
L 147.43451 -106.14443 
L 152.265631 -103.332784 
L 157.096752 -102.076494 
L 161.927873 -108.030098 
L 166.758995 -118.98649 
L 171.590116 -128.22178 
L 176.421237 -130.263489 
L 181.252358 -134.659878 
L 186.083479 -140.763053 
L 190.914601 -147.511082 
L 195.745722 -149.540947 
L 200.576843 -150.041395 
L 205.407964 -140.498609 
L 210.239085 -133.964761 
L 215.070207 -130.702493 
L 219.901328 -127.350778 
L 224.732449 -128.918021 
L 229.56357 -120.354784 
L 234.394691 -118.581363 
L 239.225812 -113.286299 
L 244.056934 -120.818157 
L 248.888055 -117.800292 
L 253.719176 -112.617463 
L 258.550297 -113.599221 
L 263.381418 -112.84706 
L 268.21254 -106.762858 
L 273.043661 -112.139341 
L 277.874782 -112.569383 
L 282.705903 -104.932553 
L 287.537024 -105.572265 
L 292.368146 -103.27998 
L 297.199267 -105.146626 
L 302.030388 -105.355189 
L 306.861509 -97.144659 
L 311.69263 -99.373695 
L 316.523751 -105.868087 
L 321.354873 -102.491665 
L 326.185994 -103.275481 
L 331.017115 -95.027269 
L 335.848236 -100.676041 
L 340.679357 -97.786732 
L 345.510479 -93.204895 
L 350.3416 -102.232838 
L 355.172721 -102.469973 
L 360.003842 -95.338589 
L 364.834963 -99.472453 
L 369.666085 -98.201168 
L 374.497206 -96.779186 
L 379.328327 -97.854602 
L 384.159448 -101.001259 
L 388.990569 -102.935505 
L 393.82169 -114.732522 
L 398.652812 -118.576791 
L 403.483933 -124.408722 
L 408.315054 -122.95364 
L 413.146175 -133.804631 
L 417.977296 -132.945679 
L 422.808418 -133.789 
L 427.639539 -135.39771 
L 432.47066 -117.2799 
L 437.301781 -124.449254 
L 442.132902 -117.794751 
L 446.964024 -106.692699 
L 451.795145 -105.176694 
L 456.626266 -114.027254 
L 461.457387 -105.392812 
L 466.288508 -100.853161 
L 471.119629 -97.967878 
L 475.950751 -101.133363 
L 480.781872 -102.226871 
L 485.612993 -98.49816 
L 485.612993 -109.640607 
L 485.612993 -109.640607 
L 480.781872 -114.656119 
L 475.950751 -113.077715 
L 471.119629 -109.743477 
L 466.288508 -112.357008 
L 461.457387 -117.561568 
L 456.626266 -126.652312 
L 451.795145 -116.779151 
L 446.964024 -118.568897 
L 442.132902 -129.679699 
L 437.301781 -136.463616 
L 432.47066 -130.045767 
L 427.639539 -148.406218 
L 422.808418 -146.549515 
L 417.977296 -145.559544 
L 413.146175 -145.929431 
L 408.315054 -136.166774 
L 403.483933 -137.266955 
L 398.652812 -131.075165 
L 393.82169 -126.674534 
L 388.990569 -115.622871 
L 384.159448 -113.100646 
L 379.328327 -108.984299 
L 374.497206 -109.008514 
L 369.666085 -110.446427 
L 364.834963 -111.789644 
L 360.003842 -106.754084 
L 355.172721 -114.349986 
L 350.3416 -113.747876 
L 345.510479 -105.847419 
L 340.679357 -109.584418 
L 335.848236 -112.275861 
L 331.017115 -106.718716 
L 326.185994 -115.042906 
L 321.354873 -113.315302 
L 316.523751 -117.347937 
L 311.69263 -110.732976 
L 306.861509 -109.741513 
L 302.030388 -117.571242 
L 297.199267 -117.168643 
L 292.368146 -114.912068 
L 287.537024 -117.592602 
L 282.705903 -117.807227 
L 277.874782 -125.094665 
L 273.043661 -124.371526 
L 268.21254 -118.251072 
L 263.381418 -125.025126 
L 258.550297 -126.018127 
L 253.719176 -125.252731 
L 248.888055 -130.46199 
L 244.056934 -132.593356 
L 239.225812 -125.408434 
L 234.394691 -131.479132 
L 229.56357 -132.622791 
L 224.732449 -141.939172 
L 219.901328 -139.883459 
L 215.070207 -144.795314 
L 210.239085 -146.642266 
L 205.407964 -153.753434 
L 200.576843 -163.751516 
L 195.745722 -163.320807 
L 190.914601 -160.964155 
L 186.083479 -153.70089 
L 181.252358 -147.62805 
L 176.421237 -142.73615 
L 171.590116 -140.464259 
L 166.758995 -131.197789 
L 161.927873 -119.128194 
L 157.096752 -114.241692 
L 152.265631 -115.721663 
L 147.43451 -118.121865 
L 142.603389 -118.567957 
L 137.772268 -123.281899 
L 132.941146 -129.885808 
L 128.110025 -128.285634 
L 123.278904 -134.501794 
L 118.447783 -138.237724 
L 113.616662 -134.704279 
L 108.78554 -139.576896 
L 103.954419 -139.012992 
L 99.123298 -150.148364 
L 94.292177 -152.120717 
L 89.461056 -155.706557 
L 84.629934 -161.608142 
L 79.798813 -158.098627 
z
" style="stroke: #ff7f0e; stroke-opacity: 0.2"/>
    </defs>
    <g clip-path="url(#p8b05cee9a1)">
     <use xlink:href="#m7d9bfa9543" x="0" y="285.283594" style="fill: #ff7f0e; fill-opacity: 0.2; stroke: #ff7f0e; stroke-opacity: 0.2"/>
    </g>
   </g>
   <g id="line2d_14">
    <path d="M 79.797003 87.453353 
L 84.628172 91.897187 
L 89.459341 103.764518 
L 94.290509 111.274118 
L 99.121678 132.926375 
L 103.952847 139.628105 
L 108.784016 153.35877 
L 113.615185 158.344382 
L 118.446353 167.150768 
L 123.277522 167.344669 
L 128.108691 178.569901 
L 132.93986 182.156007 
L 137.771029 188.424338 
L 142.602198 188.505007 
L 147.433366 199.538448 
L 152.264535 207.651796 
L 157.095704 212.363707 
L 161.926873 187.204054 
L 166.758042 157.195491 
L 171.589211 134.716064 
L 176.420379 116.410817 
L 181.251548 97.171929 
L 186.082717 91.169076 
L 190.913886 80.106817 
L 195.745055 85.748984 
L 200.576224 97.058889 
L 205.407392 109.41243 
L 210.238561 126.664574 
L 215.06973 137.864345 
L 219.900899 152.70352 
L 224.732068 154.200475 
L 229.563237 160.380014 
L 234.394405 165.037154 
L 239.225574 168.724687 
L 244.056743 181.106618 
L 248.887912 181.794744 
L 253.719081 196.179256 
L 258.55025 197.64166 
L 263.381418 203.210625 
L 268.212587 205.337811 
L 273.043756 189.461306 
L 277.874925 158.592354 
L 282.706094 111.675496 
L 287.537263 78.34086 
L 292.368431 63.781796 
L 297.1996 54.785938 
L 302.030769 41.445052 
L 306.861938 41.986835 
L 311.693107 58.154582 
L 316.524276 80.952563 
L 321.355444 108.006648 
L 326.186613 124.778794 
L 331.017782 148.160452 
L 335.848951 163.599789 
L 340.68012 170.777139 
L 345.511289 178.869193 
L 350.342457 186.575972 
L 355.173626 193.630641 
L 360.004795 196.732567 
L 364.835964 198.814239 
L 369.667133 201.79897 
L 374.498302 212.36183 
L 379.32947 215.250722 
L 384.160639 204.348496 
L 388.991808 168.92644 
L 393.822977 137.560496 
L 398.654146 116.341115 
L 403.485315 107.243192 
L 408.316483 94.171623 
L 413.147652 86.031094 
L 417.978821 76.563268 
L 422.80999 81.44344 
L 427.641159 97.299812 
L 432.472328 113.255338 
L 437.303496 136.742581 
L 442.134665 153.707724 
L 446.965834 157.253411 
L 451.797003 169.058629 
L 456.628172 176.915481 
L 461.459341 181.854781 
L 466.290509 189.454791 
L 471.121678 191.093828 
L 475.952847 187.102788 
L 480.784016 199.772672 
L 485.615185 196.489499 
" clip-path="url(#p8b05cee9a1)" style="fill: none; stroke: #1f77b4; stroke-width: 1.5; stroke-linecap: round"/>
   </g>
   <g id="line2d_15">
    <path d="M 79.797003 55.281765 
L 84.628172 48.085963 
L 89.459341 58.181296 
L 94.290509 79.458071 
L 99.121678 94.572059 
L 103.952847 111.822303 
L 108.784016 126.924109 
L 113.615185 140.168034 
L 118.446353 145.670502 
L 123.277522 150.960891 
L 128.108691 161.32117 
L 132.93986 164.699916 
L 137.771029 168.769219 
L 142.602198 177.435645 
L 147.433366 179.565358 
L 152.264535 184.746663 
L 157.095704 188.14453 
L 161.926873 178.607223 
L 166.758042 150.845999 
L 171.589211 114.207842 
L 176.420379 97.059389 
L 181.251548 76.522645 
L 186.082717 66.814514 
L 190.913886 51.770983 
L 195.745055 42.272287 
L 200.576224 48.243242 
L 205.407392 67.018385 
L 210.238561 95.621394 
L 215.06973 107.054844 
L 219.900899 114.417086 
L 224.732068 124.641044 
L 229.563237 130.07807 
L 234.394405 139.90564 
L 239.225574 154.21806 
L 244.056743 157.38715 
L 248.887912 162.235934 
L 253.719081 165.606963 
L 258.55025 167.233665 
L 263.381418 174.628546 
L 268.212587 174.958563 
L 273.043756 179.947662 
L 277.874925 182.236805 
L 282.706094 185.996252 
L 287.537263 189.825967 
L 292.368431 195.526671 
L 297.1996 196.023565 
L 302.030769 198.41123 
L 306.861938 198.96915 
L 311.693107 208.007937 
L 316.524276 205.623171 
L 321.355444 205.802952 
L 326.186613 206.505813 
L 331.017782 209.272122 
L 335.848951 212.90476 
L 340.68012 206.989965 
L 345.511289 210.345433 
L 350.342457 215.508314 
L 355.173626 211.440391 
L 360.004795 209.850137 
L 364.835964 212.35394 
L 369.667133 220.75686 
L 374.498302 215.695249 
L 379.32947 224.647925 
L 384.160639 227.100766 
L 388.991808 200.437621 
L 393.822977 168.993874 
L 398.654146 140.206025 
L 403.485315 118.192258 
L 408.316483 111.290189 
L 413.147652 108.121905 
L 417.978821 98.32957 
L 422.80999 96.222158 
L 427.641159 109.671338 
L 432.472328 124.727327 
L 437.303496 146.563883 
L 442.134665 151.05889 
L 446.965834 158.018273 
L 451.797003 163.519738 
L 456.628172 177.790178 
L 461.459341 180.708749 
L 466.290509 183.601635 
L 471.121678 190.653386 
L 475.952847 187.754053 
L 480.784016 198.660312 
L 485.615185 198.65263 
" clip-path="url(#p8b05cee9a1)" style="fill: none; stroke-dasharray: 6,2.25; stroke-dashoffset: 0; stroke: #1f77b4; stroke-width: 1.5"/>
   </g>
   <g id="line2d_16">
    <path d="M 79.798813 144.764534 
L 84.629934 145.756671 
L 89.461056 151.945513 
L 94.292177 159.958367 
L 99.123298 158.670637 
L 103.954419 158.957329 
L 108.78554 166.320589 
L 113.616662 167.565366 
L 118.447783 158.64008 
L 123.278904 169.855631 
L 128.110025 162.426302 
L 132.941146 165.327064 
L 137.772268 166.137531 
L 142.603389 180.04546 
L 147.43451 170.335588 
L 152.265631 167.881468 
L 157.096752 174.316937 
L 161.927873 171.283678 
L 166.758995 157.397922 
L 171.590116 152.325575 
L 176.421237 148.592079 
L 181.252358 146.785845 
L 186.083479 145.197155 
L 190.914601 144.309116 
L 195.745722 136.437458 
L 200.576843 141.566287 
L 205.407964 147.991818 
L 210.239085 150.848764 
L 215.070207 154.826809 
L 219.901328 156.365842 
L 224.732449 159.292114 
L 229.56357 163.575763 
L 234.394691 162.757531 
L 239.225812 162.15743 
L 244.056934 166.495714 
L 248.888055 170.375272 
L 253.719176 168.311434 
L 258.550297 167.645556 
L 263.381418 171.58342 
L 268.21254 171.799046 
L 273.043661 175.232913 
L 277.874782 163.544484 
L 282.705903 149.734738 
L 287.537024 144.150069 
L 292.368146 140.634686 
L 297.199267 140.407874 
L 302.030388 136.155259 
L 306.861509 125.306189 
L 311.69263 135.950787 
L 316.523751 145.906313 
L 321.354873 152.748134 
L 326.185994 162.522726 
L 331.017115 168.44383 
L 335.848236 169.462179 
L 340.679357 173.793093 
L 345.510479 187.944837 
L 350.3416 185.211375 
L 355.172721 184.014257 
L 360.003842 189.623549 
L 364.834963 194.971966 
L 369.666085 197.301709 
L 374.497206 198.225764 
L 379.328327 193.538689 
L 384.159448 194.545729 
L 388.990569 190.150896 
L 393.82169 173.20023 
L 398.652812 162.647246 
L 403.483933 154.468035 
L 408.315054 151.681728 
L 413.146175 142.382836 
L 417.977296 132.821678 
L 422.808418 139.336744 
L 427.639539 142.549203 
L 432.47066 152.531537 
L 437.301781 162.582749 
L 442.132902 163.347579 
L 446.964024 167.516503 
L 451.795145 170.949111 
L 456.626266 173.029294 
L 461.457387 172.662104 
L 466.288508 168.59695 
L 471.119629 174.447491 
L 475.950751 174.392207 
L 480.781872 174.877656 
L 485.612993 174.44748 
" clip-path="url(#p8b05cee9a1)" style="fill: none; stroke: #ff7f0e; stroke-width: 1.5; stroke-linecap: round"/>
   </g>
   <g id="line2d_17">
    <path d="M 79.798813 133.775563 
L 84.629934 130.223436 
L 89.461056 135.766229 
L 94.292177 140.062391 
L 99.123298 141.698983 
L 103.954419 152.229333 
L 108.78554 152.032086 
L 113.616662 156.405849 
L 118.447783 153.549898 
L 123.278904 156.786914 
L 128.110025 163.226114 
L 132.941146 161.69969 
L 137.772268 167.608914 
L 142.603389 172.467346 
L 147.43451 173.223515 
L 152.265631 175.595994 
L 157.096752 177.213504 
L 161.927873 171.914289 
L 166.758995 160.22754 
L 171.590116 151.070234 
L 176.421237 148.714264 
L 181.252358 143.993787 
L 186.083479 137.689347 
L 190.914601 131.079589 
L 195.745722 128.867444 
L 200.576843 128.240634 
L 205.407964 137.931302 
L 210.239085 145.212042 
L 215.070207 147.670306 
L 219.901328 151.60581 
L 224.732449 150.023044 
L 229.56357 158.894545 
L 234.394691 160.146773 
L 239.225812 165.950103 
L 244.056934 158.806785 
L 248.888055 160.947551 
L 253.719176 166.195906 
L 258.550297 165.558932 
L 263.381418 166.361057 
L 268.21254 172.984081 
L 273.043661 167.155839 
L 277.874782 166.545317 
L 282.705903 174.189822 
L 287.537024 173.384758 
L 292.368146 176.154102 
L 297.199267 174.055556 
L 302.030388 174.246793 
L 306.861509 181.670065 
L 311.69263 180.469768 
L 316.523751 173.774263 
L 321.354873 177.651188 
L 326.185994 176.017455 
L 331.017115 184.555386 
L 335.848236 179.024335 
L 340.679357 181.725869 
L 345.510479 185.659204 
L 350.3416 177.401611 
L 355.172721 176.942275 
L 360.003842 184.124564 
L 364.834963 179.564698 
L 369.666085 180.908779 
L 374.497206 182.203827 
L 379.328327 181.724877 
L 384.159448 178.389095 
L 388.990569 176.057228 
L 393.82169 164.423649 
L 398.652812 160.353226 
L 403.483933 154.784181 
L 408.315054 155.745195 
L 413.146175 145.543859 
L 417.977296 145.846465 
L 422.808418 144.936964 
L 427.639539 143.661995 
L 432.47066 161.53032 
L 437.301781 154.973538 
L 442.132902 161.746603 
L 446.964024 172.674699 
L 451.795145 174.129368 
L 456.626266 164.766874 
L 461.457387 173.946483 
L 466.288508 178.660357 
L 471.119629 181.197435 
L 475.950751 178.161686 
L 480.781872 176.992114 
L 485.612993 181.19563 
" clip-path="url(#p8b05cee9a1)" style="fill: none; stroke-dasharray: 6,2.25; stroke-dashoffset: 0; stroke: #ff7f0e; stroke-width: 1.5"/>
   </g>
   <g id="line2d_18"/>
   <g id="line2d_19"/>
   <g id="line2d_20"/>
   <g id="line2d_21"/>
   <g id="patch_3">
    <path d="M 59.506094 243.549375 
L 59.506094 21.789375 
" style="fill: none; stroke: #262626; stroke-width: 1.25; stroke-linejoin: miter; stroke-linecap: square"/>
   </g>
   <g id="patch_4">
    <path d="M 505.906094 243.549375 
L 505.906094 21.789375 
" style="fill: none; stroke: #262626; stroke-width: 1.25; stroke-linejoin: miter; stroke-linecap: square"/>
   </g>
   <g id="patch_5">
    <path d="M 59.506094 243.549375 
L 505.906094 243.549375 
" style="fill: none; stroke: #262626; stroke-width: 1.25; stroke-linejoin: miter; stroke-linecap: square"/>
   </g>
   <g id="patch_6">
    <path d="M 59.506094 21.789375 
L 505.906094 21.789375 
" style="fill: none; stroke: #262626; stroke-width: 1.25; stroke-linejoin: miter; stroke-linecap: square"/>
   </g>
   <g id="text_16">
    <!-- Real Data -->
    <g style="fill: #262626" transform="translate(256.026719 15.789375) scale(0.12 -0.12)">
     <defs>
      <path id="ArialMT-52" d="M 503 0 
L 503 4581 
L 2534 4581 
Q 3147 4581 3465 4457 
Q 3784 4334 3975 4021 
Q 4166 3709 4166 3331 
Q 4166 2844 3850 2509 
Q 3534 2175 2875 2084 
Q 3116 1969 3241 1856 
Q 3506 1613 3744 1247 
L 4541 0 
L 3778 0 
L 3172 953 
Q 2906 1366 2734 1584 
Q 2563 1803 2427 1890 
Q 2291 1978 2150 2013 
Q 2047 2034 1813 2034 
L 1109 2034 
L 1109 0 
L 503 0 
z
M 1109 2559 
L 2413 2559 
Q 2828 2559 3062 2645 
Q 3297 2731 3419 2920 
Q 3541 3109 3541 3331 
Q 3541 3656 3305 3865 
Q 3069 4075 2559 4075 
L 1109 4075 
L 1109 2559 
z
" transform="scale(0.015625)"/>
     </defs>
     <use xlink:href="#ArialMT-52"/>
     <use xlink:href="#ArialMT-65" x="72.216797"/>
     <use xlink:href="#ArialMT-61" x="127.832031"/>
     <use xlink:href="#ArialMT-6c" x="183.447266"/>
     <use xlink:href="#ArialMT-20" x="205.664062"/>
     <use xlink:href="#ArialMT-44" x="233.447266"/>
     <use xlink:href="#ArialMT-61" x="305.664062"/>
     <use xlink:href="#ArialMT-74" x="361.279297"/>
     <use xlink:href="#ArialMT-61" x="389.0625"/>
    </g>
   </g>
   <g id="legend_1">
    <g id="patch_7">
     <path d="M 427.558594 125.7775 
L 498.206094 125.7775 
Q 500.406094 125.7775 500.406094 123.5775 
L 500.406094 29.489375 
Q 500.406094 27.289375 498.206094 27.289375 
L 427.558594 27.289375 
Q 425.358594 27.289375 425.358594 29.489375 
L 425.358594 123.5775 
Q 425.358594 125.7775 427.558594 125.7775 
z
" style="fill: #ffffff; opacity: 0.8; stroke: #cccccc; stroke-linejoin: miter"/>
    </g>
    <g id="text_17">
     <!-- exposure -->
     <g style="fill: #262626" transform="translate(438.558594 40.27875) scale(0.12 -0.12)">
      <defs>
       <path id="ArialMT-78" d="M 47 0 
L 1259 1725 
L 138 3319 
L 841 3319 
L 1350 2541 
Q 1494 2319 1581 2169 
Q 1719 2375 1834 2534 
L 2394 3319 
L 3066 3319 
L 1919 1756 
L 3153 0 
L 2463 0 
L 1781 1031 
L 1600 1309 
L 728 0 
L 47 0 
z
" transform="scale(0.015625)"/>
       <path id="ArialMT-70" d="M 422 -1272 
L 422 3319 
L 934 3319 
L 934 2888 
Q 1116 3141 1344 3267 
Q 1572 3394 1897 3394 
Q 2322 3394 2647 3175 
Q 2972 2956 3137 2557 
Q 3303 2159 3303 1684 
Q 3303 1175 3120 767 
Q 2938 359 2589 142 
Q 2241 -75 1856 -75 
Q 1575 -75 1351 44 
Q 1128 163 984 344 
L 984 -1272 
L 422 -1272 
z
M 931 1641 
Q 931 1000 1190 694 
Q 1450 388 1819 388 
Q 2194 388 2461 705 
Q 2728 1022 2728 1688 
Q 2728 2322 2467 2637 
Q 2206 2953 1844 2953 
Q 1484 2953 1207 2617 
Q 931 2281 931 1641 
z
" transform="scale(0.015625)"/>
       <path id="ArialMT-6f" d="M 213 1659 
Q 213 2581 725 3025 
Q 1153 3394 1769 3394 
Q 2453 3394 2887 2945 
Q 3322 2497 3322 1706 
Q 3322 1066 3130 698 
Q 2938 331 2570 128 
Q 2203 -75 1769 -75 
Q 1072 -75 642 372 
Q 213 819 213 1659 
z
M 791 1659 
Q 791 1022 1069 705 
Q 1347 388 1769 388 
Q 2188 388 2466 706 
Q 2744 1025 2744 1678 
Q 2744 2294 2464 2611 
Q 2184 2928 1769 2928 
Q 1347 2928 1069 2612 
Q 791 2297 791 1659 
z
" transform="scale(0.015625)"/>
       <path id="ArialMT-73" d="M 197 991 
L 753 1078 
Q 800 744 1014 566 
Q 1228 388 1613 388 
Q 2000 388 2187 545 
Q 2375 703 2375 916 
Q 2375 1106 2209 1216 
Q 2094 1291 1634 1406 
Q 1016 1563 777 1677 
Q 538 1791 414 1992 
Q 291 2194 291 2438 
Q 291 2659 392 2848 
Q 494 3038 669 3163 
Q 800 3259 1026 3326 
Q 1253 3394 1513 3394 
Q 1903 3394 2198 3281 
Q 2494 3169 2634 2976 
Q 2775 2784 2828 2463 
L 2278 2388 
Q 2241 2644 2061 2787 
Q 1881 2931 1553 2931 
Q 1166 2931 1000 2803 
Q 834 2675 834 2503 
Q 834 2394 903 2306 
Q 972 2216 1119 2156 
Q 1203 2125 1616 2013 
Q 2213 1853 2448 1751 
Q 2684 1650 2818 1456 
Q 2953 1263 2953 975 
Q 2953 694 2789 445 
Q 2625 197 2315 61 
Q 2006 -75 1616 -75 
Q 969 -75 630 194 
Q 291 463 197 991 
z
" transform="scale(0.015625)"/>
       <path id="ArialMT-75" d="M 2597 0 
L 2597 488 
Q 2209 -75 1544 -75 
Q 1250 -75 995 37 
Q 741 150 617 320 
Q 494 491 444 738 
Q 409 903 409 1263 
L 409 3319 
L 972 3319 
L 972 1478 
Q 972 1038 1006 884 
Q 1059 663 1231 536 
Q 1403 409 1656 409 
Q 1909 409 2131 539 
Q 2353 669 2445 892 
Q 2538 1116 2538 1541 
L 2538 3319 
L 3100 3319 
L 3100 0 
L 2597 0 
z
" transform="scale(0.015625)"/>
       <path id="ArialMT-72" d="M 416 0 
L 416 3319 
L 922 3319 
L 922 2816 
Q 1116 3169 1280 3281 
Q 1444 3394 1641 3394 
Q 1925 3394 2219 3213 
L 2025 2691 
Q 1819 2813 1613 2813 
Q 1428 2813 1281 2702 
Q 1134 2591 1072 2394 
Q 978 2094 978 1738 
L 978 0 
L 416 0 
z
" transform="scale(0.015625)"/>
      </defs>
      <use xlink:href="#ArialMT-65"/>
      <use xlink:href="#ArialMT-78" x="55.615234"/>
      <use xlink:href="#ArialMT-70" x="105.615234"/>
      <use xlink:href="#ArialMT-6f" x="161.230469"/>
      <use xlink:href="#ArialMT-73" x="216.845703"/>
      <use xlink:href="#ArialMT-75" x="266.845703"/>
      <use xlink:href="#ArialMT-72" x="322.460938"/>
      <use xlink:href="#ArialMT-65" x="355.761719"/>
     </g>
    </g>
    <g id="line2d_22">
     <path d="M 429.758594 52.187344 
L 440.758594 52.187344 
L 451.758594 52.187344 
" style="fill: none; stroke: #1f77b4; stroke-width: 1.5; stroke-linecap: round"/>
    </g>
    <g id="text_18">
     <!-- familiar -->
     <g style="fill: #262626" transform="translate(460.558594 56.037344) scale(0.11 -0.11)">
      <defs>
       <path id="ArialMT-66" d="M 556 0 
L 556 2881 
L 59 2881 
L 59 3319 
L 556 3319 
L 556 3672 
Q 556 4006 616 4169 
Q 697 4388 901 4523 
Q 1106 4659 1475 4659 
Q 1713 4659 2000 4603 
L 1916 4113 
Q 1741 4144 1584 4144 
Q 1328 4144 1222 4034 
Q 1116 3925 1116 3625 
L 1116 3319 
L 1763 3319 
L 1763 2881 
L 1116 2881 
L 1116 0 
L 556 0 
z
" transform="scale(0.015625)"/>
      </defs>
      <use xlink:href="#ArialMT-66"/>
      <use xlink:href="#ArialMT-61" x="27.783203"/>
      <use xlink:href="#ArialMT-6d" x="83.398438"/>
      <use xlink:href="#ArialMT-69" x="166.699219"/>
      <use xlink:href="#ArialMT-6c" x="188.916016"/>
      <use xlink:href="#ArialMT-69" x="211.132812"/>
      <use xlink:href="#ArialMT-61" x="233.349609"/>
      <use xlink:href="#ArialMT-72" x="288.964844"/>
     </g>
    </g>
    <g id="line2d_23">
     <path d="M 429.758594 67.747188 
L 440.758594 67.747188 
L 451.758594 67.747188 
" style="fill: none; stroke: #ff7f0e; stroke-width: 1.5; stroke-linecap: round"/>
    </g>
    <g id="text_19">
     <!-- novel -->
     <g style="fill: #262626" transform="translate(460.558594 71.597188) scale(0.11 -0.11)">
      <defs>
       <path id="ArialMT-6e" d="M 422 0 
L 422 3319 
L 928 3319 
L 928 2847 
Q 1294 3394 1984 3394 
Q 2284 3394 2536 3286 
Q 2788 3178 2913 3003 
Q 3038 2828 3088 2588 
Q 3119 2431 3119 2041 
L 3119 0 
L 2556 0 
L 2556 2019 
Q 2556 2363 2490 2533 
Q 2425 2703 2258 2804 
Q 2091 2906 1866 2906 
Q 1506 2906 1245 2678 
Q 984 2450 984 1813 
L 984 0 
L 422 0 
z
" transform="scale(0.015625)"/>
       <path id="ArialMT-76" d="M 1344 0 
L 81 3319 
L 675 3319 
L 1388 1331 
Q 1503 1009 1600 663 
Q 1675 925 1809 1294 
L 2547 3319 
L 3125 3319 
L 1869 0 
L 1344 0 
z
" transform="scale(0.015625)"/>
      </defs>
      <use xlink:href="#ArialMT-6e"/>
      <use xlink:href="#ArialMT-6f" x="55.615234"/>
      <use xlink:href="#ArialMT-76" x="111.230469"/>
      <use xlink:href="#ArialMT-65" x="161.230469"/>
      <use xlink:href="#ArialMT-6c" x="216.845703"/>
     </g>
    </g>
    <g id="text_20">
     <!-- omitted -->
     <g style="fill: #262626" transform="translate(438.558594 87.872813) scale(0.12 -0.12)">
      <use xlink:href="#ArialMT-6f"/>
      <use xlink:href="#ArialMT-6d" x="55.615234"/>
      <use xlink:href="#ArialMT-69" x="138.916016"/>
      <use xlink:href="#ArialMT-74" x="161.132812"/>
      <use xlink:href="#ArialMT-74" x="188.916016"/>
      <use xlink:href="#ArialMT-65" x="216.699219"/>
      <use xlink:href="#ArialMT-64" x="272.314453"/>
     </g>
    </g>
    <g id="line2d_24">
     <path d="M 429.758594 99.781406 
L 440.758594 99.781406 
L 451.758594 99.781406 
" style="fill: none; stroke: #333333; stroke-width: 1.5; stroke-linecap: round"/>
    </g>
    <g id="text_21">
     <!-- False -->
     <g style="fill: #262626" transform="translate(460.558594 103.631406) scale(0.11 -0.11)">
      <use xlink:href="#ArialMT-46"/>
      <use xlink:href="#ArialMT-61" x="61.083984"/>
      <use xlink:href="#ArialMT-6c" x="116.699219"/>
      <use xlink:href="#ArialMT-73" x="138.916016"/>
      <use xlink:href="#ArialMT-65" x="188.916016"/>
     </g>
    </g>
    <g id="line2d_25">
     <path d="M 429.758594 115.34125 
L 440.758594 115.34125 
L 451.758594 115.34125 
" style="fill: none; stroke-dasharray: 6,2.25; stroke-dashoffset: 0; stroke: #333333; stroke-width: 1.5"/>
    </g>
    <g id="text_22">
     <!-- True -->
     <g style="fill: #262626" transform="translate(460.558594 119.19125) scale(0.11 -0.11)">
      <defs>
       <path id="ArialMT-54" d="M 1659 0 
L 1659 4041 
L 150 4041 
L 150 4581 
L 3781 4581 
L 3781 4041 
L 2266 4041 
L 2266 0 
L 1659 0 
z
" transform="scale(0.015625)"/>
      </defs>
      <use xlink:href="#ArialMT-54"/>
      <use xlink:href="#ArialMT-72" x="57.333984"/>
      <use xlink:href="#ArialMT-75" x="90.634766"/>
      <use xlink:href="#ArialMT-65" x="146.25"/>
     </g>
    </g>
   </g>
  </g>
 </g>
 <defs>
  <clipPath id="p8b05cee9a1">
   <rect x="59.506094" y="21.789375" width="446.4" height="221.76"/>
  </clipPath>
 </defs>
</svg>
